<?xml version="1.0" encoding="UTF-8"?>
<svg id="Capa_2" data-name="Capa 2" xmlns="http://www.w3.org/2000/svg" viewBox="0 0 272.63 335.82">
  <defs>
    <style>
      .cls-1 {
        fill: #00dfba;
        stroke-width: 0px;
      }
    </style>
  </defs>
  <g id="Capa_1-2" data-name="Capa 1">
    <path class="cls-1" d="m254.56,45.57c-9.96,0-18.07,8.11-18.07,18.07v86.39c0,2.21-1.79,4-4,4s-4-1.79-4-4V21.18c0-11.68-9.5-21.18-21.18-21.18-5.95,0-11.38,2.23-15.29,6.29-3.8,3.95-5.89,9.27-5.89,14.97v128.77c0,2.21-1.79,4-4,4s-4-1.79-4-4V22.86c0-12.6-10.25-22.86-22.86-22.86-14.31,0-22.86,12.35-22.86,24.3v125.73c0,2.21-1.79,4-4,4s-4-1.79-4-4V47.06c0-11.68-9.5-21.18-21.18-21.18-13.26,0-21.18,11.45-21.18,22.53v156.26h47.03c18.77,0,36.58,8.15,48.86,22.37,1.44,1.67,1.26,4.2-.41,5.64-.76.65-1.69.97-2.61.97-1.12,0-2.24-.47-3.03-1.39-10.76-12.46-26.36-19.6-42.8-19.6h-51.03c-.18,0-.36-.03-.54-.05-.07,0-.13,0-.2-.02-.34-.06-.65-.17-.96-.31-.07-.03-.14-.07-.21-.11-.27-.14-.51-.32-.74-.51-.03-.03-.07-.04-.1-.07l-19.83-18.64c-7.33-6.89-16.62-10.32-25.91-10.32s-19.25,3.69-26.65,11.05c-3.77,3.74-3.9,9.74-.3,13.64l75.11,81.49c30.13,33.4,60.74,47.01,105.68,47.01,49.19,0,89.22-40.44,89.22-90.14V64.53c0-9.19-6.33-18.96-18.07-18.96Z"/>
  </g>
</svg>