<?xml version="1.0" encoding="UTF-8"?>
<svg id="Capa_2" data-name="Capa 2" xmlns="http://www.w3.org/2000/svg" viewBox="0 0 238 257.25">
  <defs>
    <style>
      .cls-1 {
        fill: #fe2bf1;
        stroke-width: 0px;
      }
    </style>
  </defs>
  <g id="Capa_1-2" data-name="Capa 1">
    <g>
      <path class="cls-1" d="m180.53,79.99V26.59c0-14.66-11.93-26.59-26.59-26.59s-26.59,11.93-26.59,26.59v51.93h46.89c2.25,0,4.38.54,6.28,1.47Z"/>
      <path class="cls-1" d="m57.51,78.52V24.57c0-12.25-9.97-22.22-22.22-22.22S13.07,12.32,13.07,24.57v66.48c9.7-7.83,22.02-12.53,35.43-12.53h9.02Z"/>
      <path class="cls-1" d="m213.26,134.05c-12.09,0-22.64-6.6-28.31-16.38-7.33,18.22-25.18,31.11-45.99,31.11h-33.25c15.7,9.61,26.2,26.91,26.2,46.62v14.97c0,2.21-1.79,4-4,4s-4-1.79-4-4v-14.97c0-25.71-20.92-46.62-46.63-46.62h-.71c-2.21,0-4-1.79-4-4h0c0-2.21,1.79-4,4-4h62.39c22.92,0,41.56-18.64,41.56-41.56v-6.43c0-3.46-2.82-6.28-6.28-6.28H48.5c-14.79,0-28.04,6.66-36.94,17.13-.67.79-1.33,1.59-1.94,2.42-.25.34-.49.69-.74,1.04-.61.86-1.2,1.74-1.75,2.63-.18.29-.35.59-.52.89-.56.96-1.09,1.94-1.58,2.93-.08.16-.17.32-.25.49-.56,1.16-1.06,2.34-1.52,3.54-.06.16-.12.31-.18.46-.45,1.22-.86,2.46-1.21,3.71-.05.16-.09.32-.14.48-.34,1.26-.63,2.53-.88,3.81-.03.17-.06.33-.09.5-.23,1.29-.41,2.6-.53,3.91-.01.15-.02.3-.03.46-.11,1.36-.19,2.72-.19,4.1,0,3.29.17,6.55.43,9.78,5,62.85,57.7,112.46,121.81,112.46h14.54c55.81,0,101.22-45.41,101.22-101.22v-33.34c-6.01,6.94-14.86,11.36-24.74,11.36Z"/>
      <path class="cls-1" d="m119.36,26.92c0-14.84-12.08-26.92-26.92-26.92s-26.92,12.08-26.92,26.92v51.59h53.84V26.92Z"/>
      <path class="cls-1" d="m213.26,38.98c-13.64,0-24.74,11.1-24.74,24.73v37.6c0,13.64,11.1,24.73,24.74,24.73s24.74-11.1,24.74-24.73v-37.6c0-13.64-11.1-24.73-24.74-24.73Z"/>
    </g>
  </g>
</svg>