<?xml version="1.0" encoding="UTF-8"?>
<svg id="Capa_2" data-name="Capa 2" xmlns="http://www.w3.org/2000/svg" viewBox="0 0 228.51 367.29">
  <defs>
    <style>
      .cls-1 {
        fill: #0c7ceb;
        stroke-width: 0px;
      }
    </style>
  </defs>
  <g id="Capa_1-2" data-name="Capa 1">
    <g>
      <path class="cls-1" d="m75.06,202.5h39.95v-43.84c0-9.24,3.91-17.56,10.13-23.46l15.31-108.93c.84-6-.7-11.97-4.35-16.81-3.65-4.84-8.96-7.97-14.96-8.81-6.01-.84-11.97.7-16.81,4.35-4.84,3.65-7.97,8.96-8.81,14.96l-21.18,145.52c-.29,1.97-1.97,3.42-3.96,3.42s-3.67-1.46-3.96-3.42L45.16,19.55c-.85-6.02-3.97-11.33-8.81-14.98C31.5.93,25.54-.62,19.53.22,7.14,1.97-1.52,13.46.22,25.85c5.87,43.8,10.31,75.05,13.56,97.87,8.22,57.8,9.62,67.64,9.85,108.54,10.27-17.76,29.47-29.75,51.42-29.75Z"/>
      <path class="cls-1" d="m204.13,251.31c-11.26,0-21.19-5.79-26.99-14.54-6.34,16.98-22.72,29.1-41.89,29.1h-16.04c14.35,9.12,23.89,25.15,23.89,43.37v14.01c0,2.21-1.79,4-4,4s-4-1.79-4-4v-14.01c0-23.91-19.46-43.37-43.37-43.37-2.21,0-4-1.79-4-4h0c0-2.21,1.79-4,4-4h43.52c9.04,0,17.32-3.3,23.72-8.75,3.26-2.77,6.03-6.1,8.16-9.85,2.92-5.12,4.63-11,4.78-17.28,0-.28.04-.55.04-.83,0-.57-.08-1.12-.17-1.66-.02-.13-.01-.26-.04-.39-.96-4.91-5.28-8.63-10.47-8.63h-86.22c-28.33,0-51.37,23.05-51.37,51.37h0c0,30.6,11.51,58.23,32.41,77.82,20.51,19.23,48.53,29.22,76.83,27.37,53.6-3.47,95.59-49.96,95.59-105.84v-21.05c-5.94,6.81-14.65,11.14-24.37,11.14Z"/>
      <path class="cls-1" d="m204.13,159.91c-13.44,0-24.37,10.93-24.37,24.37v34.33c.12.84.2,1.69.2,2.56,0,.21-.01.41-.02.61,1.42,12.1,11.72,21.52,24.19,21.52,13.44,0,24.37-10.93,24.37-24.38v-34.65c0-13.44-10.93-24.37-24.37-24.37Z"/>
      <path class="cls-1" d="m139.5,135.63c-.35.12-.7.25-1.05.39-.35.14-.7.28-1.04.44-.36.16-.72.34-1.07.51-.31.16-.62.32-.92.49-.38.21-.75.44-1.12.68-.26.17-.52.33-.78.5-.39.27-.77.56-1.14.86-.22.17-.44.33-.65.51-5.33,4.47-8.73,11.18-8.73,18.67v43.84h38.27c3.88,0,7.49,1.19,10.48,3.23v-47.06c0-12.6-9.61-23-21.89-24.25-.82-.08-1.65-.13-2.49-.13-.78,0-1.56.04-2.32.12-.31.03-.61.08-.92.12-.45.06-.9.12-1.34.2-.37.07-.73.16-1.09.25-.37.09-.75.18-1.11.29-.37.11-.74.23-1.1.35Z"/>
    </g>
  </g>
</svg>